<?xml version="1.0" encoding="UTF-8"?>
<svg width="663px" height="134px" viewBox="0 0 663 134" version="1.1" xmlns="http://www.w3.org/2000/svg" xmlns:xlink="http://www.w3.org/1999/xlink">
    <!-- Generator: Sketch 46.2 (44496) - http://www.bohemiancoding.com/sketch -->
    <title>unibook ver.1</title>
    <desc>Created with Sketch.</desc>
    <defs></defs>
    <g id="lastest" stroke="none" stroke-width="1" fill="none" fill-rule="evenodd">
        <g id="logo-ver.4-pink" transform="translate(-336.000000, -339.000000)" fill="#FFFFFF">
            <g id="unibook-ver.1" transform="translate(290.000000, 265.000000)">
                <g id="open-book" transform="translate(46.000000, 74.000000)">
                    <g id="Group">
                        <path d="M35.6250036,2 C35.6215127,2 35.6175854,2 35.6140945,2 C34.3883529,2 33.2354838,2.47199588 32.3649411,3.32977836 C31.4847985,4.19704386 31,5.35181735 31,6.58116188 L31,75.2748825 C31,77.7939181 33.0827571,79.8482855 35.6433308,79.8547512 C42.0535496,79.8698533 51.0347195,80.6597042 59.8855939,83.9995868 C65.9394829,86.2840253 71.9324145,89.7614684 77,95 L77,23.1100698 C77,22.2561667 76.7792007,21.4539893 76.3624747,20.7901777 C66.1223617,4.50006952 46.4441693,2.0250007 35.6250036,2 Z" id="Combined-Shape" fill-rule="nonzero"></path>
                        <path d="M115.40446,80.5053465 C119.077669,80.0247262 122.476876,79.8615367 125.357062,79.8547512 C127.917223,79.8482855 130,77.7939181 130,75.2753136 L130,6.58116188 C130,5.35181735 129.515197,4.19704386 128.635046,3.32977836 C127.764495,2.47199588 126.610742,2 125.386298,2 C125.382371,2 125.378444,2 125.374953,2 C114.556121,2.02543174 94.8777415,4.50050057 84.6370949,20.7906087 C84.220365,21.4544203 84,22.2565978 84,23.1105008 L84,89.5848797 C81.6444534,107.668312 68.8261905,120.782 49.0742535,120.782 C27.3254366,120.782 14.1274366,104.238028 14.1274366,83.0468732 L14.1274366,5.53185915 C14.1274366,3.67298592 12.640338,2 10.5955775,2 L3.53185915,2 C1.67298592,2 0,3.67298592 0,5.53185915 L0,84.1621972 C0,112.41707 19.8899437,133.98 49.0742535,133.98 C75.9064321,133.98 94.9811795,115.98276 98.0774895,91.327599 C98.1465805,90.7774445 98.6730537,88.7761805 98.7443853,88.4539871 C98.8157168,88.1317938 99.0565663,86.3705489 101.611482,84.5184574 C102.751433,83.6920926 104.06155,83.0598192 105.427989,82.5658307 C107.829522,81.8694807 110.208182,81.3407224 112.509479,80.9437435 C113.624064,80.7777879 114.618361,80.64602 115.40446,80.5053465 Z" id="Combined-Shape" fill-rule="nonzero"></path>
                        <path d="M358.56,76.91 L358.56,4.09 C358.56,2.99 359.44,2 360.65,2 L385.84,2 C398.93,2 409.05,10.8 409.05,22.35 C409.05,30.82 402.12,37.42 396.95,39.84 C402.78,41.71 411.25,47.65 411.25,57.77 C411.25,70.09 400.69,79 387.27,79 L360.65,79 C359.44,79 358.56,78.01 358.56,76.91 Z M372.75,34.34 L384.52,34.34 C390.13,34.34 393.98,29.94 393.98,24.44 C393.98,18.94 390.13,15.09 384.52,15.09 L372.75,15.09 L372.75,34.34 Z M372.75,66.02 L386.06,66.02 C391.56,66.02 395.96,61.73 395.96,56.01 C395.96,50.51 390.46,46.44 384.74,46.44 L372.75,46.44 L372.75,66.02 Z M420.93,40.61 C420.93,18.61 438.42,0.9 460.42,0.9 C482.42,0.9 500.02,18.61 500.02,40.61 C500.02,62.61 482.42,80.1 460.42,80.1 C438.42,80.1 420.93,62.61 420.93,40.61 Z M435.23,40.61 C435.23,54.47 446.56,65.8 460.42,65.8 C474.28,65.8 485.72,54.47 485.72,40.61 C485.72,26.75 474.28,15.2 460.42,15.2 C446.56,15.2 435.23,26.75 435.23,40.61 Z M508.93,40.61 C508.93,18.61 526.42,0.9 548.42,0.9 C570.42,0.9 588.02,18.61 588.02,40.61 C588.02,62.61 570.42,80.1 548.42,80.1 C526.42,80.1 508.93,62.61 508.93,40.61 Z M523.23,40.61 C523.23,54.47 534.56,65.8 548.42,65.8 C562.28,65.8 573.72,54.47 573.72,40.61 C573.72,26.75 562.28,15.2 548.42,15.2 C534.56,15.2 523.23,26.75 523.23,40.61 Z M602.43,76.36 C602.43,77.79 603.53,79 605.07,79 L614.75,79 C616.18,79 617.39,77.79 617.39,76.36 L617.39,42.81 L646.1,78.23 C646.32,78.56 646.98,79 648.08,79 L660.07,79 C662.27,79 663.15,76.58 662.05,75.15 L631.25,38.3 L659.96,5.96 C661.39,4.31 660.29,2 658.2,2 L647.2,2 C646.21,2 645.55,2.55 645.11,3.1 L617.39,34.34 L617.39,4.64 C617.39,3.21 616.18,2 614.75,2 L605.07,2 C603.53,2 602.43,3.21 602.43,4.64 L602.43,76.36 Z" id="UNIBOOK"></path>
                        <path d="M158.91,49.85 C158.91,66.57 172.22,80.1 189.49,80.1 C206.87,80.1 220.18,66.57 220.18,49.85 L220.18,4.09 C220.18,2.99 219.19,2 218.09,2 L207.64,2 C206.43,2 205.55,2.99 205.55,4.09 L205.55,49.19 C205.55,58.43 199.06,65.8 189.49,65.8 C179.92,65.8 173.54,58.43 173.54,49.08 L173.54,4.09 C173.54,2.99 172.66,2 171.45,2 L161,2 C159.9,2 158.91,2.99 158.91,4.09 L158.91,49.85 Z M239.1,76.91 C239.1,78.01 240.09,79 241.19,79 L251.2,79 C252.41,79 253.29,78.01 253.29,76.91 L253.29,29.61 L253.4,29.61 L299.38,80.1 L302.02,80.1 C303.12,80.1 304.11,79.22 304.11,78.12 L304.11,4.09 C304.11,2.99 303.12,2 302.02,2 L291.9,2 C290.69,2 289.81,2.99 289.81,4.09 L289.81,49.52 L289.7,49.52 L243.94,0.9 L241.19,0.9 C240.09,0.9 239.1,1.78 239.1,2.88 L239.1,76.91 Z M324.13,76.91 C324.13,78.01 325.12,79 326.22,79 L336.45,79 C337.55,79 338.54,78.01 338.54,76.91 L338.54,4.09 C338.54,2.99 337.55,2 336.45,2 L326.22,2 C325.12,2 324.13,2.99 324.13,4.09 L324.13,76.91 Z" id="UNIBOOK"></path>
                        <path d="M158.584,107.436 C158.584,100.236 164.308,94.44 171.508,94.44 C178.708,94.44 184.468,100.236 184.468,107.436 C184.468,114.636 178.708,120.36 171.508,120.36 C164.308,120.36 158.584,114.636 158.584,107.436 Z M163.264,107.436 C163.264,111.972 166.972,115.68 171.508,115.68 C176.044,115.68 179.788,111.972 179.788,107.436 C179.788,102.9 176.044,99.12 171.508,99.12 C166.972,99.12 163.264,102.9 163.264,107.436 Z M187.6288,119.316 C187.6288,119.676 187.9528,120 188.3128,120 L191.5888,120 C191.9848,120 192.2728,119.676 192.2728,119.316 L192.2728,103.836 L192.3448,103.836 L207.1048,120.108 C207.2848,120.288 207.4648,120.36 207.7168,120.36 L208.2208,120.36 C208.5808,120.36 208.9048,120.072 208.9048,119.712 L208.9048,95.484 C208.9048,95.124 208.5808,94.8 208.2208,94.8 L204.9088,94.8 C204.5128,94.8 204.2248,95.124 204.2248,95.484 L204.2248,110.352 L204.1528,110.352 L189.4648,94.692 C189.2848,94.512 189.1048,94.44 188.8528,94.44 L188.3128,94.44 C187.9528,94.44 187.6288,94.728 187.6288,95.088 L187.6288,119.316 Z M213.5416,119.316 C213.5416,119.676 213.8296,120 214.2256,120 L227.4016,120 C227.7976,120 228.0856,119.676 228.0856,119.316 L228.0856,116.364 C228.0856,116.004 227.7976,115.68 227.4016,115.68 L218.2216,115.68 L218.2216,95.484 C218.2216,95.124 217.8976,94.8 217.5376,94.8 L214.2256,94.8 C213.8296,94.8 213.5416,95.124 213.5416,95.484 L213.5416,119.316 Z M230.2384,119.316 C230.2384,119.676 230.5624,120 230.9224,120 L234.2704,120 C234.6304,120 234.9544,119.676 234.9544,119.316 L234.9544,95.484 C234.9544,95.124 234.6304,94.8 234.2704,94.8 L230.9224,94.8 C230.5624,94.8 230.2384,95.124 230.2384,95.484 L230.2384,119.316 Z M239.591201,119.316 C239.591201,119.676 239.915201,120 240.275201,120 L243.551201,120 C243.947201,120 244.235201,119.676 244.235201,119.316 L244.235201,103.836 L244.307201,103.836 L259.067201,120.108 C259.247201,120.288 259.427201,120.36 259.679201,120.36 L260.183201,120.36 C260.543201,120.36 260.867201,120.072 260.867201,119.712 L260.867201,95.484 C260.867201,95.124 260.543201,94.8 260.183201,94.8 L256.871201,94.8 C256.475201,94.8 256.187201,95.124 256.187201,95.484 L256.187201,110.352 L256.115201,110.352 L241.427201,94.692 C241.247201,94.512 241.067201,94.44 240.815201,94.44 L240.275201,94.44 C239.915201,94.44 239.591201,94.728 239.591201,95.088 L239.591201,119.316 Z M265.504001,119.316 C265.504001,119.676 265.792001,120 266.188001,120 L280.840001,120 C281.236001,120 281.524001,119.676 281.524001,119.316 L281.524001,116.364 C281.524001,116.004 281.236001,115.68 280.840001,115.68 L270.184001,115.68 L270.184001,109.38 L279.076001,109.38 C279.436001,109.38 279.760001,109.092 279.760001,108.696 L279.760001,105.708 C279.760001,105.348 279.436001,105.024 279.076001,105.024 L270.184001,105.024 L270.184001,99.12 L280.840001,99.12 C281.236001,99.12 281.524001,98.796 281.524001,98.436 L281.524001,95.484 C281.524001,95.124 281.236001,94.8 280.840001,94.8 L266.188001,94.8 C265.792001,94.8 265.504001,95.124 265.504001,95.484 L265.504001,119.316 Z M291.913601,119.316 C291.913601,119.676 292.201601,120 292.597601,120 L307.249601,120 C307.645601,120 307.933601,119.676 307.933601,119.316 L307.933601,116.364 C307.933601,116.004 307.645601,115.68 307.249601,115.68 L296.593601,115.68 L296.593601,109.38 L305.485601,109.38 C305.845601,109.38 306.169601,109.092 306.169601,108.696 L306.169601,105.708 C306.169601,105.348 305.845601,105.024 305.485601,105.024 L296.593601,105.024 L296.593601,99.12 L307.249601,99.12 C307.645601,99.12 307.933601,98.796 307.933601,98.436 L307.933601,95.484 C307.933601,95.124 307.645601,94.8 307.249601,94.8 L292.597601,94.8 C292.201601,94.8 291.913601,95.124 291.913601,95.484 L291.913601,119.316 Z M311.166401,119.316 L311.166401,95.484 C311.166401,95.124 311.454401,94.8 311.814401,94.8 L320.346401,94.8 C327.294401,94.8 332.982401,100.452 332.982401,107.364 C332.982401,114.348 327.294401,120 320.346401,120 L311.814401,120 C311.454401,120 311.166401,119.676 311.166401,119.316 Z M315.810401,115.608 L319.914401,115.608 C324.594401,115.608 328.014401,112.296 328.014401,107.364 C328.014401,102.468 324.594401,99.156 319.914401,99.156 L315.810401,99.156 L315.810401,115.608 Z M335.891201,110.748 C335.891201,116.22 340.247201,120.36 345.899201,120.36 C351.587201,120.36 355.943201,116.22 355.943201,110.748 L355.943201,95.484 C355.943201,95.124 355.619201,94.8 355.259201,94.8 L351.839201,94.8 C351.443201,94.8 351.155201,95.124 351.155201,95.484 L351.155201,110.532 C351.155201,113.556 349.031201,115.68 345.899201,115.68 C342.767201,115.68 340.679201,113.556 340.679201,110.496 L340.679201,95.484 C340.679201,95.124 340.391201,94.8 339.995201,94.8 L336.575201,94.8 C336.215201,94.8 335.891201,95.124 335.891201,95.484 L335.891201,110.748 Z M358.852002,107.436 C358.852002,100.236 364.648002,94.44 371.848002,94.44 C375.484002,94.44 378.112002,95.592 380.560002,97.788 C380.884002,98.076 380.884002,98.508 380.596002,98.796 L378.400002,101.064 C378.148002,101.352 377.788002,101.352 377.500002,101.064 C375.988002,99.732 373.972002,98.94 371.956002,98.94 C367.348002,98.94 363.928002,102.792 363.928002,107.328 C363.928002,111.828 367.384002,115.644 371.992002,115.644 C374.152002,115.644 375.988002,114.816 377.500002,113.592 C377.788002,113.34 378.184002,113.376 378.400002,113.592 L380.632002,115.896 C380.920002,116.148 380.848002,116.616 380.596002,116.868 C378.148002,119.244 375.052002,120.36 371.848002,120.36 C364.648002,120.36 358.852002,114.636 358.852002,107.436 Z M381.236802,120 C380.696802,120 380.408802,119.532 380.624802,119.064 L391.820802,94.836 C391.928802,94.62 392.108802,94.44 392.432802,94.44 L392.792802,94.44 C393.152802,94.44 393.296802,94.62 393.404802,94.836 L404.492802,119.064 C404.708802,119.532 404.420802,120 403.880802,120 L400.748802,120 C400.208802,120 399.956802,119.784 399.704802,119.28 L397.940802,115.392 L387.176802,115.392 L385.412802,119.28 C385.268802,119.64 384.944802,120 384.368802,120 L381.236802,120 Z M388.940802,111.396 L396.176802,111.396 L392.576802,103.476 L392.468802,103.476 L388.940802,111.396 Z M408.625602,119.316 L408.625602,99.12 L403.117602,99.12 C402.721602,99.12 402.433602,98.796 402.433602,98.436 L402.433602,95.484 C402.433602,95.124 402.721602,94.8 403.117602,94.8 L418.849602,94.8 C419.245602,94.8 419.533602,95.124 419.533602,95.484 L419.533602,98.436 C419.533602,98.796 419.245602,99.12 418.849602,99.12 L413.341602,99.12 L413.341602,119.316 C413.341602,119.676 413.017602,120 412.657602,120 L409.309602,120 C408.949602,120 408.625602,119.676 408.625602,119.316 Z M422.046402,119.316 C422.046402,119.676 422.370402,120 422.730402,120 L426.078402,120 C426.438402,120 426.762402,119.676 426.762402,119.316 L426.762402,95.484 C426.762402,95.124 426.438402,94.8 426.078402,94.8 L422.730402,94.8 C422.370402,94.8 422.046402,95.124 422.046402,95.484 L422.046402,119.316 Z M429.923202,107.436 C429.923202,100.236 435.647202,94.44 442.847202,94.44 C450.047202,94.44 455.807202,100.236 455.807202,107.436 C455.807202,114.636 450.047202,120.36 442.847202,120.36 C435.647202,120.36 429.923202,114.636 429.923202,107.436 Z M434.603202,107.436 C434.603202,111.972 438.311202,115.68 442.847202,115.68 C447.383202,115.68 451.127202,111.972 451.127202,107.436 C451.127202,102.9 447.383202,99.12 442.847202,99.12 C438.311202,99.12 434.603202,102.9 434.603202,107.436 Z M458.968002,119.316 C458.968002,119.676 459.292002,120 459.652002,120 L462.928002,120 C463.324002,120 463.612002,119.676 463.612002,119.316 L463.612002,103.836 L463.684002,103.836 L478.444002,120.108 C478.624002,120.288 478.804002,120.36 479.056002,120.36 L479.560002,120.36 C479.920002,120.36 480.244002,120.072 480.244002,119.712 L480.244002,95.484 C480.244002,95.124 479.920002,94.8 479.560002,94.8 L476.248002,94.8 C475.852002,94.8 475.564002,95.124 475.564002,95.484 L475.564002,110.352 L475.492002,110.352 L460.804002,94.692 C460.624002,94.512 460.444002,94.44 460.192002,94.44 L459.652002,94.44 C459.292002,94.44 458.968002,94.728 458.968002,95.088 L458.968002,119.316 Z M492.037603,119.316 L492.037603,95.484 C492.037603,95.124 492.325603,94.8 492.721603,94.8 L501.181603,94.8 C505.609603,94.8 509.245603,98.4 509.245603,102.756 C509.245603,107.22 505.609603,110.856 501.217603,110.856 L496.717603,110.856 L496.717603,119.316 C496.717603,119.676 496.393603,120 496.033603,120 L492.721603,120 C492.325603,120 492.037603,119.676 492.037603,119.316 Z M496.717603,106.464 L501.037603,106.464 C503.053603,106.464 504.601603,104.844 504.601603,102.72 C504.601603,100.74 503.053603,99.228 501.037603,99.228 L496.717603,99.228 L496.717603,106.464 Z M511.758403,119.316 L511.758403,95.484 C511.758403,95.124 512.046403,94.8 512.442403,94.8 L515.754403,94.8 C516.114403,94.8 516.438403,95.124 516.438403,95.484 L516.438403,115.68 L525.618403,115.68 C526.014403,115.68 526.302403,116.004 526.302403,116.364 L526.302403,119.316 C526.302403,119.676 526.014403,120 525.618403,120 L512.442403,120 C512.046403,120 511.758403,119.676 511.758403,119.316 Z M526.079203,120 C525.539203,120 525.251203,119.532 525.467203,119.064 L536.663203,94.836 C536.771203,94.62 536.951203,94.44 537.275203,94.44 L537.635203,94.44 C537.995203,94.44 538.139203,94.62 538.247203,94.836 L549.335203,119.064 C549.551203,119.532 549.263203,120 548.723203,120 L545.591203,120 C545.051203,120 544.799203,119.784 544.547203,119.28 L542.783203,115.392 L532.019203,115.392 L530.255203,119.28 C530.111203,119.64 529.787203,120 529.211203,120 L526.079203,120 Z M533.783203,111.396 L541.019203,111.396 L537.419203,103.476 L537.311203,103.476 L533.783203,111.396 Z M553.468003,119.316 L553.468003,99.12 L547.960003,99.12 C547.564003,99.12 547.276003,98.796 547.276003,98.436 L547.276003,95.484 C547.276003,95.124 547.564003,94.8 547.960003,94.8 L563.692003,94.8 C564.088003,94.8 564.376003,95.124 564.376003,95.484 L564.376003,98.436 C564.376003,98.796 564.088003,99.12 563.692003,99.12 L558.184003,99.12 L558.184003,119.316 C558.184003,119.676 557.860003,120 557.500003,120 L554.152003,120 C553.792003,120 553.468003,119.676 553.468003,119.316 Z M566.888803,119.316 C566.888803,119.676 567.176803,120 567.572803,120 L570.884803,120 C571.244803,120 571.568803,119.676 571.568803,119.316 L571.568803,110.208 L580.460803,110.208 C580.820803,110.208 581.144803,109.884 581.144803,109.524 L581.144803,106.572 C581.144803,106.212 580.820803,105.888 580.460803,105.888 L571.568803,105.888 L571.568803,99.12 L582.224803,99.12 C582.620803,99.12 582.908803,98.796 582.908803,98.436 L582.908803,95.484 C582.908803,95.124 582.620803,94.8 582.224803,94.8 L567.572803,94.8 C567.176803,94.8 566.888803,95.124 566.888803,95.484 L566.888803,119.316 Z M583.981604,107.436 C583.981604,100.236 589.705604,94.44 596.905604,94.44 C604.105604,94.44 609.865604,100.236 609.865604,107.436 C609.865604,114.636 604.105604,120.36 596.905604,120.36 C589.705604,120.36 583.981604,114.636 583.981604,107.436 Z M588.661604,107.436 C588.661604,111.972 592.369604,115.68 596.905604,115.68 C601.441604,115.68 605.185604,111.972 605.185604,107.436 C605.185604,102.9 601.441604,99.12 596.905604,99.12 C592.369604,99.12 588.661604,102.9 588.661604,107.436 Z M613.026404,119.316 L613.026404,95.484 C613.026404,95.124 613.314404,94.8 613.710404,94.8 L624.006404,94.8 C628.326404,94.8 631.854404,98.256 631.854404,102.54 C631.854404,105.852 629.658404,108.552 626.526404,109.812 L631.458404,118.956 C631.710404,119.424 631.458404,120 630.846404,120 L627.066404,120 C626.742404,120 626.562404,119.82 626.490404,119.676 L621.702404,110.136 L617.706404,110.136 L617.706404,119.316 C617.706404,119.676 617.382404,120 617.022404,120 L613.710404,120 C613.314404,120 613.026404,119.676 613.026404,119.316 Z M617.742404,106.284 L623.610404,106.284 C625.518404,106.284 627.174404,104.628 627.174404,102.612 C627.174404,100.704 625.518404,99.12 623.610404,99.12 L617.742404,99.12 L617.742404,106.284 Z M633.935204,119.172 C633.863204,119.676 634.151204,120 634.619204,120 L637.859204,120 C638.183204,120 638.471204,119.712 638.507204,119.46 L640.595204,105.816 L640.703204,105.816 L647.075204,119.964 C647.183204,120.18 647.363204,120.36 647.687204,120.36 L648.335204,120.36 C648.659204,120.36 648.875204,120.18 648.947204,119.964 L655.247204,105.816 L655.355204,105.816 L657.479204,119.46 C657.551204,119.712 657.839204,120 658.163204,120 L661.439204,120 C661.907204,120 662.195204,119.676 662.087204,119.172 L657.839204,94.98 C657.803204,94.692 657.587204,94.44 657.191204,94.44 L656.615204,94.44 C656.291204,94.44 656.111204,94.584 656.003204,94.8 L648.083204,111.792 L647.975204,111.792 L640.055204,94.8 C639.947204,94.584 639.731204,94.44 639.443204,94.44 L638.867204,94.44 C638.471204,94.44 638.255204,94.692 638.219204,94.98 L633.935204,119.172 Z" id="online-education-pla"></path>
                    </g>
                </g>
            </g>
        </g>
    </g>
</svg>