<?xml version="1.0" encoding="utf-8"?>
<!-- Generator: Adobe Illustrator 25.0.0, SVG Export Plug-In . SVG Version: 6.00 Build 0)  -->
<svg version="1.1" id="katman_1" xmlns="http://www.w3.org/2000/svg" xmlns:xlink="http://www.w3.org/1999/xlink" x="0px" y="0px"
	 viewBox="0 0 560 400" style="enable-background:new 0 0 560 400;" xml:space="preserve">
<style type="text/css">
	.st0{fill:#3A33D1;}
	.st1{fill:#6464E2;}
</style>
<g transform="matrix(.108535 0 0 .108535 148.142 64.6092)">
	<path class="st0" d="M902.9,2716.4l-1116.1-1005l312.6-1469l1427.5-464L2643,783.4l-312.6,1469L902.9,2716.4L902.9,2716.4z
		 M363.1,1524.6l665.5,598.3l851.1-277.2l186.8-875.5l-665.5-599.6L550,649.1L363.1,1524.6L363.1,1524.6z"/>
	<path class="st1" d="M1815.1,2287.8H614.7L13.9,1247.4L614.7,207h1200.4l600.8,1040.4L1815.1,2287.8z M826,1921.5h777.8
		l389.6-674.1l-389.6-674.1H826l-388.3,674.1L826,1921.5z"/>
</g>
</svg>
