<svg version="1.1" xmlns="http://www.w3.org/2000/svg" viewBox="-311.29600019454955 -958.4640380859375 1993.7280029296876 1277.9520629882813"><desc>Created with Snap</desc><defs></defs><g><g><g transform="matrix(1.024,0,0,-1.024,0,0)"><path d="M669 625Q672 625 672 619Q672 613 669 613Q635 613 610 595Q585 577 568 534L355 1Q354 -3 344 -3Q336 -3 333 1L84 542Q67 581 48 597Q29 613 -1 613Q-4 613 -4 619Q-4 625 -1 625L37 624Q65 622 82 622Q122 622 168 624L209 625Q212 625 212 619Q212 613 209 613Q178 613 162 605Q147 597 147 578Q147 566 156 546L365 88L545 539Q553 560 553 572Q553 593 534 603Q515 613 475 613Q472 613 472 619Q472 625 475 625L518 624Q552 622 580 622Q601 622 627 624L669 625ZM1071 -12Q962 -12 881 30Q800 72 757 144Q715 216 715 305Q715 402 764 477Q814 552 900 594Q987 636 1096 636Q1145 636 1189 626Q1234 617 1262 600Q1270 595 1271 591Q1273 588 1274 577L1286 465Q1286 462 1280 461Q1275 461 1274 464Q1252 536 1194 575Q1137 614 1053 614Q927 614 858 541Q789 468 789 341Q789 244 828 167Q868 91 938 48Q1008 5 1095 5Q1146 5 1174 14Q1202 23 1215 49Q1228 75 1228 126Q1228 178 1221 198Q1215 219 1192 226Q1170 233 1115 233Q1109 233 1109 241Q1109 244 1110 246Q1112 249 1114 249Q1192 244 1240 244Q1287 244 1338 247Q1340 247 1341 244Q1343 242 1343 240Q1343 233 1338 233Q1314 234 1304 226Q1294 219 1291 196Q1288 173 1288 116Q1288 71 1291 52Q1295 33 1295 28Q1295 22 1293 20Q1291 18 1284 16Q1163 -12 1071 -12Z" fill="#2c2c54" style=""></path></g></g></g></svg>